<?xml version="1.0" encoding="UTF-8" standalone="no"?><!DOCTYPE svg PUBLIC "-//W3C//DTD SVG 1.1//EN" "http://www.w3.org/Graphics/SVG/1.1/DTD/svg11.dtd"><svg width="100%" height="100%" viewBox="0 0 48 48" version="1.1" xmlns="http://www.w3.org/2000/svg" xmlns:xlink="http://www.w3.org/1999/xlink" xml:space="preserve" xmlns:serif="http://www.serif.com/" style="fill-rule:evenodd;clip-rule:evenodd;stroke-linecap:round;"><g id="Layer-1" serif:id="Layer 1"><path id="path7966" d="M45.985,2.328c-1.875,-1.275 -4.785,-0.609 -6.042,1.062l-6.244,10.378c-1.257,1.671 -1.234,3.813 0.053,4.804c1.286,0.992 3.335,0.445 4.593,-1.225l8.102,-8.811c1.258,-1.67 1.376,-4.959 -0.462,-6.208Z" style="fill:#fff;stroke:#000;stroke-width:1.18px;"/><path id="path7968" d="M33.747,25.528c0.286,5.089 -2.806,16.085 -10.181,21.907c-5.061,-0.481 -15.714,-6.039 -22.293,-14.871c11.38,-3.866 20.349,-15.925 25.667,-12.368l6.807,5.332Z" style="fill:#fff;stroke:#000;stroke-width:1.17px;stroke-linecap:butt;"/><path id="path7972" d="M31.707,27.122c-3.654,6.922 -4.784,14.459 -10.989,19.712" style="fill:none;stroke:#000;stroke-width:1.17px;"/><path id="path7974" d="M23.31,23.579c-0.893,-0.997 -7.571,6.206 -19.229,12.131" style="fill:none;stroke:#000;stroke-width:1.17px;"/><path id="path7976" d="M29.989,25.13c-5.098,5.65 -5.28,13.967 -12.935,19.654" style="fill:none;stroke:#000;stroke-width:1.17px;"/><path id="path7978" d="M24.238,24.29c-0,0 -11.421,13.944 -15.207,15.855" style="fill:none;stroke:#000;stroke-width:1.17px;"/><path id="path7980" d="M28.594,24.17c-4.429,2.871 -12.192,15.131 -15.708,18.588" style="fill:none;stroke:#000;stroke-width:1.17px;"/><path id="path7982" d="M41.722,20.973l-12.317,-9.306c-1.048,2.673 -0.085,3.808 -3.143,8.021l8.5,6.423c2.201,-3.817 4.64,-3.426 6.96,-5.138Z" style="fill:#fff;stroke:#000;stroke-width:1.18px;stroke-linejoin:round;"/><path id="rect7984" d="M25.75,16.352c0.334,-0.439 0.962,-0.524 1.402,-0.19l10.512,8.007c0.439,0.334 0.524,0.962 0.19,1.402l-1.239,1.626c-0.335,0.439 -0.963,0.524 -1.402,0.19l-10.512,-8.007c-0.439,-0.334 -0.524,-0.962 -0.19,-1.401l1.239,-1.627Z" style="fill:#fff;stroke:#000;stroke-width:1.17px;"/><path id="path10193" d="M42.186,5.469l0.001,0.002c0.111,0.824 0.881,1.41 1.705,1.299c0.824,-0.112 1.411,-0.882 1.299,-1.706l0,-0.002c-0.112,-0.824 -0.881,-1.41 -1.706,-1.299c-0.824,0.112 -1.41,0.882 -1.299,1.706Z" style="fill:none;stroke:#000;stroke-width:1.17px;stroke-linejoin:round;"/></g></svg>