<?xml version="1.0" encoding="UTF-8" standalone="no"?><!DOCTYPE svg PUBLIC "-//W3C//DTD SVG 1.1//EN" "http://www.w3.org/Graphics/SVG/1.1/DTD/svg11.dtd"><svg width="100%" height="100%" viewBox="0 0 66 66" version="1.1" xmlns="http://www.w3.org/2000/svg" xmlns:xlink="http://www.w3.org/1999/xlink" xml:space="preserve" xmlns:serif="http://www.serif.com/" style="fill-rule:evenodd;clip-rule:evenodd;stroke-linejoin:round;stroke-miterlimit:2;"><g id="Light-S"><path d="M19.743,55.92l26.514,0c4.175,0 6.262,-2.05 6.262,-6.591l0,-20.142c0,-4.065 -1.685,-6.152 -5.054,-6.519l0,-6.848c0,-10.437 -6.811,-15.82 -14.465,-15.82c-7.654,-0 -14.465,5.383 -14.465,15.82l-0,6.848c-3.369,0.367 -5.054,2.454 -5.054,6.519l-0,20.142c-0,4.541 2.051,6.591 6.262,6.591Zm2.857,-40.576c-0,-7.324 4.651,-11.462 10.4,-11.462c5.713,-0 10.4,4.138 10.4,11.462l0,7.251l-20.8,0l-0,-7.251Zm-2.747,36.768c-1.538,-0 -2.307,-0.623 -2.307,-2.527l-0,-20.654c-0,-1.905 0.769,-2.527 2.307,-2.527l26.294,-0c1.575,-0 2.27,0.622 2.27,2.527l0,20.654c0,1.904 -0.695,2.527 -2.27,2.527l-26.294,-0Z" style="fill-rule:nonzero;"/></g></svg>