<?xml version="1.0" encoding="UTF-8" standalone="no"?><!DOCTYPE svg PUBLIC "-//W3C//DTD SVG 1.1//EN" "http://www.w3.org/Graphics/SVG/1.1/DTD/svg11.dtd"><svg width="100%" height="100%" viewBox="0 0 71 71" version="1.1" xmlns="http://www.w3.org/2000/svg" xmlns:xlink="http://www.w3.org/1999/xlink" xml:space="preserve" xmlns:serif="http://www.serif.com/" style="fill-rule:evenodd;clip-rule:evenodd;stroke-linejoin:round;stroke-miterlimit:2;"><g id="Light-S"><path d="M35.232,64.254c15.893,-0 29.04,-13.11 29.04,-29.004c0,-15.894 -13.183,-29.004 -29.04,-29.004c-15.894,0 -29.004,13.11 -29.004,29.004c-0,15.894 13.147,29.004 29.004,29.004Zm-0,-4.285c-13.697,0 -24.683,-11.023 -24.683,-24.719c0,-13.696 10.95,-24.719 24.683,-24.719c13.696,-0 24.719,11.023 24.756,24.719c-0,13.696 -11.023,24.719 -24.756,24.719Zm-0.55,-18.786c1.245,-0 2.015,-0.806 2.015,-1.831l-0,-0.476c-0,-1.648 0.915,-2.674 2.966,-4.065c2.856,-1.868 4.651,-3.553 4.651,-6.812c-0,-4.541 -4.029,-7.104 -8.789,-7.104c-4.834,-0 -8.02,2.38 -8.716,5.09c-0.147,0.439 -0.22,0.879 -0.22,1.355c0,1.135 0.916,1.758 1.758,1.758c1.428,-0 1.684,-0.769 2.454,-1.722c0.842,-1.831 2.343,-3.039 4.541,-3.039c2.783,-0 4.577,1.575 4.577,3.845c0,1.941 -1.135,2.966 -3.735,4.761c-2.124,1.465 -3.552,3.003 -3.552,5.713l-0,0.512c-0,1.319 0.732,2.015 2.05,2.015Zm-0.073,8.349c1.538,0 2.893,-1.245 2.893,-2.783c0,-1.538 -1.318,-2.783 -2.893,-2.783c-1.575,-0 -2.856,1.245 -2.856,2.783c-0,1.538 1.318,2.783 2.856,2.783Z" style="fill-rule:nonzero;"/></g></svg>